# xmcd
#
# Track frame offsets:
#	150
#	11375
#	25779
#	37808
#	49714
#	60888
#	70926
#	81230
#	91628
#	101725
#	113219
#	123317
#	134572
#	144563
#	153765
#	161714
#	173499
#	183344
#	194599
#	205897
#	217713
#	227336
#	238981
#	251108
#	264147
#	274002
#	285773
#	295608
#	308187
#
# Disc length: 4254 seconds
# Revision: 2
# Processed by: cddbd v1.5.2PL0 Copyright (c) Steve Scherf et al.
# Submitted via: dBpowerAMP V12.0
#
DISCID=7f109c1d
DTITLE=Wanda Jackson - The Best Of The Classic Capitol Singles [Omnivore OVCD-56]
DYEAR=2013
DGENRE=Country
TTITLE0=Gotta Know [Capitol F3485, 7/56]
TTITLE1=Half As Good A Girl [Capitol F3485, 7/56]
TTITLE2=Hot Dog! That Made Him Mad [Capitol F3575, 11/56]
TTITLE3=Silver Threads And Golden Needles [Capitol F3575, 11/56]
TTITLE4=Let Me Explain [Capitol F3683, 4/57]
TTITLE5=Don'a Wan'a [Capitol F3683, 4/57]
TTITLE6=Cool Love [Capitol F3764, 7/57]
TTITLE7=Did You Miss Me? [Capitol F3764, 7/57]
TTITLE8=Fujiyama Mama [Capitol F3843, 11/57]
TTITLE9=No Wedding Bells For Joe [Capitol F3843, 11/57]
TTITLE10=Honey Bop [Capitol F3941, 3/58]
TTITLE11=Just A Queen For A Day [Capitol F3941, 3/58]
TTITLE12=Mean Mean Man [Capitol F4026, 7/58]
TTITLE13=Every Time They Play Our Song [Capitol F4026, 7/58]
TTITLE14=Rock Your Baby [Capitol F4081, 10/58]
TTITLE15=Sinful Heart [Capitol F4081, 10/58]
TTITLE16=Let's Have A Party [Capitol 4397, 6/60]
TTITLE17=Little Charm Bracelet [Capitol 4520, 2/61]
TTITLE18=Riot In Cell Block Number Nine [Capitol 4520, 2/61]
TTITLE19=Right Or Wrong [Capitol 4553, 4/61]
TTITLE20=Funnel Of Love [Capitol 4553, 4/61]
TTITLE21=In The Middle Of A Heartache [Capitol 4635, 9/61]
TTITLE22=I'd Be Ashamed [Capitol 4635, 9/61]
TTITLE23=The Greatest Actor [Capitol 4833, 9/62]
TTITLE24=You Bug Me Bad [Capitol 4833, 9/62]
TTITLE25=But I Was Lying [Capitol 4917, 2/63]
TTITLE26=Sympathy [Capitol 4917, 2/63]
TTITLE27=This Should Go On Forever [Capitol 4973, 5/63]
TTITLE28=We Haven't  A Moment To Lose [Capitol 4973, 5/63]
EXTD=
EXTT0=
EXTT1=
EXTT2=
EXTT3=
EXTT4=
EXTT5=
EXTT6=
EXTT7=
EXTT8=
EXTT9=
EXTT10=
EXTT11=
EXTT12=
EXTT13=
EXTT14=
EXTT15=
EXTT16=
EXTT17=
EXTT18=
EXTT19=
EXTT20=
EXTT21=
EXTT22=
EXTT23=
EXTT24=
EXTT25=
EXTT26=
EXTT27=
EXTT28=
PLAYORDER=
